<?xml version="1.0" encoding="UTF-8" standalone="no"?>
<!-- Created with Inkscape (http://www.inkscape.org/) -->

<svg
   width="48"
   height="48"
   viewBox="0 0 48 48"
   version="1.1"
   id="svg1"
   sodipodi:docname="cd_logo_circle.svg"
   inkscape:version="1.3.2 (091e20e, 2023-11-25, custom)"
   xmlns:inkscape="http://www.inkscape.org/namespaces/inkscape"
   xmlns:sodipodi="http://sodipodi.sourceforge.net/DTD/sodipodi-0.dtd"
   xmlns="http://www.w3.org/2000/svg"
   xmlns:svg="http://www.w3.org/2000/svg">
  <sodipodi:namedview
     id="namedview1"
     pagecolor="#505050"
     bordercolor="#ffffff"
     borderopacity="1"
     inkscape:showpageshadow="0"
     inkscape:pageopacity="0"
     inkscape:pagecheckerboard="true"
     inkscape:deskcolor="#505050"
     inkscape:document-units="px"
     showguides="false"
     inkscape:zoom="11.345681"
     inkscape:cx="25.780735"
     inkscape:cy="25.957014"
     inkscape:window-width="1920"
     inkscape:window-height="974"
     inkscape:window-x="-11"
     inkscape:window-y="-11"
     inkscape:window-maximized="1"
     inkscape:current-layer="layer1"
     inkscape:clip-to-page="false"
     shape-rendering="auto"
     labelstyle="default"
     showborder="true" />
  <defs
     id="defs1" />
  <g
     inkscape:groupmode="layer"
     id="layer2"
     inkscape:label="remove_bg"
     style="display:inline;opacity:1;fill:#ffffff;fill-opacity:1">
    <rect
       style="fill:#000041;fill-opacity:1;stroke:#ffffff;stroke-width:0;stroke-dasharray:none;stroke-opacity:1"
       id="rect14"
       width="33.299503"
       height="17.854006"
       x="7.8115029"
       y="15.927888"
       ry="2.5917103"
       inkscape:label="rect14"
       sodipodi:insensitive="true" />
  </g>
  <g
     inkscape:label="Layer 1"
     inkscape:groupmode="layer"
     id="layer1"
     style="display:inline">
    <path
       id="rect1"
       style="display:inline;fill:#000041;fill-opacity:1;stroke-width:0.185008;stroke-dasharray:none"
       d="m 13.235867,13.365432 c -5.7977874,0 -10.4657685,5.121163 -10.4657685,11.482503 v 0.273024 c 0,6.361349 4.6679811,11.483365 10.4657685,11.483365 h 21.449596 c 5.797814,0 10.465769,-5.122016 10.465769,-11.483365 v -0.273024 c 0,-6.36134 -4.667955,-11.482503 -10.465769,-11.482503 z m 14.680414,4.606954 c 0.133306,-1.45e-4 0.171748,0.100591 0.123592,0.172255 3.39e-4,-5.1e-5 5.32e-4,4.9e-5 8.62e-4,0 0.0039,-8.78e-4 0.0076,-0.0015 0.01163,-0.0021 4.65e-4,-1.08e-4 8.7e-4,1.08e-4 0.0013,0 8.01e-4,-1.25e-4 0.0017,-3.09e-4 0.0026,-4.31e-4 0.0085,-0.002 0.01684,-0.0043 0.02541,-0.0065 0.01438,-0.0041 0.02929,-0.007 0.04393,-0.0099 0.0029,-5.79e-4 0.006,-0.0011 0.009,-0.0017 0.0025,-4.61e-4 0.0044,-3.35e-4 0.0065,-4.3e-4 0.03181,-0.0014 0.03594,0.03572 4.31e-4,0.04263 -0.0028,5.61e-4 -0.006,7.22e-4 -0.009,0.0013 -0.0015,3.01e-4 -0.003,0.001 -0.0047,0.0013 -0.0043,0.0038 -0.01029,0.0065 -0.01852,0.0078 -0.01023,0.0015 -0.02042,0.0022 -0.03057,0.0047 -0.0059,0.0011 -0.01177,0.0021 -0.01766,0.003 -0.0092,0.0023 -0.01794,0.005 -0.02713,0.0073 -0.009,0.0019 -0.01761,0.005 -0.0267,0.006 -0.01035,0.0017 -0.02103,0.0026 -0.03144,0.0035 h -0.03057 -0.0013 c -0.01276,0.003 -0.0182,0.01149 -0.03316,0.01249 -0.02695,0.0018 -0.05396,0.0022 -0.08096,0.003 -0.0127,0.0024 -0.02551,0.0046 -0.03833,0.0065 -0.01438,0.0024 -0.02871,0.006 -0.04306,0.0086 -0.01366,0.0022 -0.02732,0.0042 -0.04091,0.0069 -0.01151,0.0022 -0.02331,0.0035 -0.03488,0.0056 -0.01372,0.0029 -0.02719,0.0057 -0.04091,0.0086 -0.01638,0.0038 -0.03336,0.0072 -0.04952,0.01206 -0.0154,0.0039 -0.03058,0.0082 -0.04565,0.01335 -0.0129,0.0046 -0.02571,0.0088 -0.03876,0.01292 -0.01279,0.0043 -0.02559,0.0084 -0.03833,0.01292 -0.01128,0.0037 -0.02227,0.0078 -0.03359,0.0112 -0.01117,0.0037 -0.02238,0.0071 -0.03359,0.01033 -0.01152,0.0037 -0.02293,0.0075 -0.03445,0.0112 -0.01198,0.0035 -0.02395,0.0074 -0.03574,0.01163 -0.01391,0.0051 -0.02815,0.0096 -0.0422,0.01421 -0.01412,0.0051 -0.02825,0.01015 -0.04263,0.01421 -0.01399,0.0047 -0.02796,0.0093 -0.04177,0.01464 -0.0092,0.0029 -0.01734,0.0073 -0.02627,0.01077 -0.0092,0.0038 -0.01851,0.0077 -0.02756,0.01163 -0.0094,0.0042 -0.01873,0.0087 -0.02799,0.01335 -0.01082,0.0048 -0.0217,0.0092 -0.03273,0.01335 -0.01331,0.0044 -0.02667,0.0089 -0.04005,0.01292 -0.0091,0.0031 -0.01777,0.0064 -0.02627,0.01077 -0.0072,0.0041 -0.01432,0.0087 -0.02153,0.01292 -0.0077,0.0044 -0.0154,0.0088 -0.02282,0.01378 -0.0085,0.0056 -0.01726,0.01163 -0.02584,0.01723 -0.01799,0.01173 -0.03169,0.0063 -0.03531,-0.0047 -0.0039,0.0026 -0.0081,0.0048 -0.01206,0.0073 -0.03358,0.02057 -0.05296,-0.01689 -0.01938,-0.03746 3.6e-4,-2.21e-4 4.41e-4,-6.41e-4 8.62e-4,-8.62e-4 -0.0061,-0.0109 2.61e-4,-0.02739 0.02239,-0.03273 0.0049,-0.0012 0.0097,-0.0029 0.01464,-0.0043 -0.0044,-0.0018 -0.01131,-0.0017 -0.0112,-0.006 -0.01117,0.0027 -0.02396,0.0074 -0.03273,0.006 -0.04037,0.01246 -0.07078,0.0018 -0.07794,-0.02455 -0.01242,0.0039 -0.02503,0.0082 -0.03746,0.01206 -0.209403,0.0649 -0.269415,-0.167721 -0.05986,-0.232113 0.05237,-0.0161 0.104428,-0.03328 0.156321,-0.05125 0.06702,-0.0244 0.13497,-0.04425 0.2024,-0.06718 0.07237,-0.02179 0.146783,-0.03292 0.221347,-0.04048 0.06708,-0.0047 0.133807,-0.01492 0.200246,-0.02584 0.07211,-0.01261 0.144629,-0.02049 0.217472,-0.02498 0.06746,-0.0043 0.13543,-0.0033 0.20283,-0.0082 0.0067,-4.96e-4 0.01302,-4.24e-4 0.01938,-4.31e-4 z m 0.710551,1.749678 h 4.3e-4 4.31e-4 v 4.31e-4 c 0.03408,-4.06e-4 0.05352,0.01237 0.06632,0.02842 0.04316,0.0091 0.04353,0.06805 -0.01766,0.08527 -0.01921,0.0054 -0.03858,0.01064 -0.05771,0.01636 0.006,9.41e-4 0.01186,0.0018 0.01723,0.0047 0.05896,0.03807 0.104428,0.08894 0.135651,0.156321 0.02379,0.06458 0.03079,0.12217 0.01723,0.181729 0.0232,0.0188 0.03744,0.03979 0.04479,0.06244 0.0131,-0.0011 0.02653,-0.0025 0.03962,-0.0034 0.122151,-0.0082 0.236508,-0.02418 0.189049,0.208428 -0.0043,0.02096 -0.162975,0.117576 -0.179144,0.1279 -0.02677,0.01735 -0.05365,0.0349 -0.08053,0.05211 0.286729,0.178346 0.505955,0.466106 0.695048,0.840603 0.247773,0.566519 0.431543,1.166383 0.498678,1.793172 0.02485,0.344114 0.02687,0.685994 -0.0047,1.023193 0.774862,-0.149689 1.279392,0.709832 0.481883,1.779392 -0.424516,0.569292 -0.904409,1.086322 -1.367273,1.617903 -0.07781,0.08566 -0.218232,0.261617 -0.383266,0.442264 6.13e-4,0.0011 0.002,0.0019 0.0026,0.003 0.0371,0.0747 -0.0026,0.132202 -0.05684,0.174838 0.01243,0.04286 0.03032,0.09997 0.03316,0.124885 0.239875,-0.01388 0.279104,0.256052 0.03014,0.332452 0.0082,0.02242 0.01537,0.04606 0.02584,0.06632 -0.01082,0.0154 -0.01988,0.03228 -0.0323,0.04608 -0.01623,0.01801 -0.06198,0.05374 -0.08828,0.07407 2.36e-4,0.0024 9.43e-4,0.0045 0.0013,0.0069 0.01241,0.02313 0.02401,0.04666 0.03273,0.07149 0.0069,-0.01325 0.01295,-0.02599 0.02325,-0.04393 0.009,-0.01548 -0.0023,0.03246 -0.01809,0.05986 v 4.31e-4 c 0.001,0.0035 -0.0012,0.0049 -0.0047,0.006 -0.0052,0.0072 -0.01104,0.01144 -0.01636,0.01034 l -4.31e-4,4.31e-4 c -0.0381,0.08501 0.01414,0.0304 -0.106367,0.09948 0.0026,0.0021 0.0049,0.0048 0.0069,0.0082 5.54e-4,10e-4 8.73e-4,0.0021 0.0013,0.003 0.0098,1.65e-4 0.01984,4.22e-4 0.02971,4.31e-4 -0.0013,0.01338 -0.0011,0.02745 -4.31e-4,0.04177 0.01012,0.003 0.01902,0.0071 0.0267,0.01077 0.04143,-0.0015 0.0826,-0.0031 0.124023,-0.0047 0.153778,-0.005 0.158392,0.165443 0.0047,0.170532 -0.0434,0.0014 -0.08666,0.0027 -0.130052,0.0043 0.0243,0.01165 0.04764,0.02518 0.07019,0.04048 0.01012,0.0077 0.01933,0.01648 0.02842,0.02541 0.02469,-0.0041 0.03735,-0.0064 0.106368,-0.01723 0.0095,-0.0015 0.01906,-0.0025 0.02756,-0.0026 0.127365,-0.001 0.13834,0.149057 -0.0052,0.171394 -0.056,0.0088 -0.0715,0.01129 -0.08656,0.01378 0.02193,0.03679 0.02764,0.06412 -0.02713,0.05082 -0.01082,-0.0027 -0.02148,-0.0055 -0.0323,-0.0082 -0.0026,0.01386 -0.0085,0.02898 -0.01723,0.04479 -0.01221,0.02207 -0.02573,0.04307 -0.03747,0.06546 -0.01357,0.02364 -0.02328,0.0493 -0.03316,0.07493 -0.0089,0.02406 -0.01405,0.04937 -0.01766,0.07493 -4.56e-4,0.0088 8.7e-4,0.01773 0.0047,0.02498 0.0079,0.0035 0.01183,0.0156 0.02024,0.01981 0.01436,0.004 0.02982,0.0046 0.04479,0.0043 0.108742,-0.0025 0.110257,0.1197 0.0013,0.120578 -0.0062,5.1e-5 -0.01207,-0.002 -0.01809,-0.0034 -0.0014,0.01422 -0.01518,0.02745 -0.04091,0.02799 -0.01335,2.64e-4 -0.0268,0.0022 -0.04005,0.0039 -0.01672,0.0039 -0.03272,-6.2e-4 -0.04823,-0.0069 -0.03775,-0.01526 -0.0357,-0.05249 -0.01206,-0.06072 -0.01198,-0.01287 -0.02502,-0.02409 -0.02756,-0.05426 -0.0015,-0.0182 -0.0021,-0.03643 -0.0026,-0.05469 -0.0016,-0.02953 -0.0036,-0.05918 -0.0056,-0.08871 -7.2e-4,-0.0339 7.67e-4,-0.0676 0.0052,-0.1012 9.45e-4,-0.0071 0.002,-0.01434 0.003,-0.02153 -0.07502,0.01905 -0.15201,0.02232 -0.228669,0.01895 -0.04686,-0.004 -0.09259,-0.01518 -0.137803,-0.02842 -0.198463,0.02549 -0.397329,0.04987 -0.596002,0.07321 -0.178102,0.02148 -0.356407,0.04303 -0.533559,0.07278 -0.135481,0.02313 -0.270134,0.04973 -0.406521,0.06589 -0.07353,0.0082 -0.147414,0.01907 -0.221348,0.01981 -0.15386,0.0016 -0.15385,-0.168073 0,-0.170532 0.06868,-0.001 0.137101,-0.0114 0.205414,-0.01895 0.100729,-0.01206 0.200543,-0.03096 0.300585,-0.04866 -0.06007,-0.01832 -0.135944,-0.04655 -0.15503,-0.08484 -0.01259,-0.02533 -0.01248,-0.05639 -0.01895,-0.08441 0.0025,-0.007 0.0038,-0.01434 0.006,-0.02153 -0.117175,0.01115 -0.234131,0.02212 -0.3514,0.03273 v 4.3e-4 c -0.153343,0.01387 -0.172607,-0.155156 -0.01938,-0.16924 0.0773,-0.007 0.154423,-0.01464 0.231683,-0.02196 -0.0064,-0.01073 -0.01297,-0.02113 -0.02024,-0.03058 0.0076,6.14e-4 0.01528,0.0011 0.02282,0.0017 0.02099,-2.35e-4 0.04187,-6.32e-4 0.06287,-8.61e-4 0.0071,-0.0044 0.01313,-0.0084 0.02067,-0.01292 0.04737,-0.02894 0.105413,-0.02183 0.161489,-0.01938 0.0076,-0.0292 0.0168,-0.0581 0.02239,-0.08742 0.04046,-0.01298 0.08102,-0.02655 0.121439,-0.03962 -0.018,-0.0078 -0.03637,-0.01419 -0.05082,-0.02799 -0.04268,-0.04073 -0.05341,-0.10979 -0.0801,-0.164504 0.006,-0.04296 0.0074,-0.08694 0.01809,-0.12876 0.0024,-0.0088 0.01447,-0.03321 0.02584,-0.05641 -0.01418,-0.06874 -0.01774,-0.141884 -0.02239,-0.212304 -0.01298,0.0054 -0.01602,0.0064 -0.03488,0.01378 0.01291,-0.0102 0.02469,-0.02171 0.03704,-0.03273 2.8e-4,-2.73e-4 7.48e-4,-6.07e-4 0.0013,-8.61e-4 0.01321,-0.0118 0.02682,-0.02291 0.03962,-0.03531 -0.0021,-0.0058 -0.0036,-0.01226 -0.0056,-0.01809 -0.0838,-4.63e-4 -0.165733,-0.01262 -0.2502,-0.04694 -0.01597,-0.0065 -0.02844,-0.01673 -0.04306,-0.02455 -0.0011,0.0018 -0.0023,0.0033 -0.0034,0.0052 -0.09445,0.128063 -0.211813,0.02905 -0.127468,-0.09775 -0.01292,-0.01165 -0.02622,-0.0215 -0.03919,-0.03402 -0.04091,-0.04955 -0.07164,-0.10416 -0.07019,-0.173546 3.98e-4,-0.01943 0.0022,-0.04011 0.0095,-0.05771 0.02727,-0.06351 0.04951,-0.07192 0.09732,-0.110674 0.07695,-0.04691 0.159496,-0.08051 0.244602,-0.104644 0.01831,-0.0051 0.03673,-0.0115 0.05555,-0.01378 0.01789,-0.0022 0.03626,1.51e-4 0.05426,4.31e-4 0.0037,0.0052 0.0081,0.01051 0.01249,0.0155 0.0075,-0.0087 0.01152,-0.01168 0.01722,-0.01852 0.0031,-0.02548 0.0094,-0.04985 0.01895,-0.07235 -0.0026,-0.02284 -0.0062,-0.04452 -0.0082,-0.07019 -0.001,-0.01333 -0.0012,-0.02794 -0.0017,-0.04263 -0.02444,-0.0215 -0.05393,-0.04083 -0.05469,-0.08182 -3.8e-4,-0.02037 0.01073,-0.03386 0.01679,-0.05082 -0.01117,-0.01738 -0.02148,-0.03556 -0.03187,-0.05598 -0.01789,-0.03792 -0.03598,-0.07641 -0.04909,-0.116703 -0.02337,-0.0718 -0.0064,-0.121525 0.02412,-0.140388 -0.0049,-0.01805 -0.01239,-0.03547 -0.01335,-0.05426 -0.0061,-0.12286 0.07802,-0.259534 0.159335,-0.382405 -0.08951,-0.242171 -0.144446,-0.526477 -0.127899,-0.78419 0.0046,-0.07298 0.02294,-0.144124 0.03445,-0.21618 0.01621,-0.04963 0.02484,-0.07408 0.03574,-0.108951 -0.08196,-0.465685 -0.04238,-0.829515 0.09603,-1.206645 -0.0072,-0.02744 -0.0098,-0.05987 -0.0069,-0.09819 0.0061,-0.0667 0.01144,-0.133428 0.01636,-0.200246 -6.36e-4,-0.0048 -0.002,-0.01178 -0.0026,-0.01636 -0.0253,-0.284712 -0.0072,-0.57145 0.0039,-0.856536 9.7e-5,-0.0023 3.4e-4,-0.0055 4.3e-4,-0.0078 -0.0046,-0.0057 -0.0089,-0.01149 -0.01206,-0.01809 -0.0071,-0.01459 -0.0096,-0.03168 -0.01292,-0.0478 -0.0075,-0.03643 -0.0084,-0.074 -0.01464,-0.110674 -8.01e-4,-0.01073 -0.0015,-0.02112 -0.0017,-0.03187 -4.7e-5,-0.0023 2.8e-5,-0.0051 0,-0.0073 -0.03146,-0.04419 -0.06344,-0.124207 -0.07751,-0.162781 -0.02933,-0.06458 -0.04743,-0.133155 -0.05986,-0.203691 -0.01271,-0.09532 -0.0025,-0.18769 0.02024,-0.279914 0.03029,-0.09613 0.05964,-0.192622 0.09474,-0.286804 0.0022,-0.0069 0.0072,-0.01113 0.0095,-0.01766 -0.0091,-0.01738 -0.01726,-0.03541 -0.02498,-0.0534 -0.0086,-0.02367 -0.01954,-0.04685 -0.02584,-0.07149 -0.0055,-0.02173 -0.0062,-0.03246 -0.009,-0.05426 -0.0046,-0.03758 0.0095,-0.0565 0.02627,-0.06287 v -4.31e-4 c -6.47e-4,-0.01263 -0.0011,-0.02566 -8.62e-4,-0.03833 0.0014,-0.02653 0.0045,-0.05287 0.0078,-0.07924 -6.58e-4,-0.002 -0.0015,-0.0034 -0.0022,-0.0056 -0.0036,-0.01236 0.0011,-0.04188 0.0026,-0.0534 0.0074,-0.04256 0.01561,-0.09442 0.03144,-0.133928 0.0037,-0.0094 0.0061,-0.02142 0.01249,-0.02842 -0.009,-0.01576 -0.01912,-0.03102 -0.02756,-0.04651 -4.8e-4,-8.78e-4 -7.92e-4,-0.0017 -0.0013,-0.0026 -0.138738,0.120439 -0.27147,-0.03028 -0.133067,-0.192495 0.02179,-0.02555 0.0434,-0.05187 0.06416,-0.07837 3e-6,-0.01829 1.9e-4,-0.03696 0.0022,-0.05685 0.0076,-0.116982 0.05231,-0.22017 0.110243,-0.316518 0.01219,-0.01771 0.02515,-0.03534 0.03833,-0.05211 -0.01347,-0.005 -0.02662,-0.01083 -0.03876,-0.01895 -0.01885,-0.01258 -0.03475,-0.02982 -0.05211,-0.04479 -0.01104,-0.02203 -0.02724,-0.04199 -0.03316,-0.06632 -0.0091,-0.03703 -0.0072,-0.07079 0.0013,-0.102492 -3.8e-5,-6.38e-4 -3.95e-4,-0.0015 -4.3e-4,-0.0022 -0.0305,0.04085 -0.05783,0.08455 -0.08139,0.130914 -0.02566,0.05703 -0.04225,0.118103 -0.0577,0.179145 -0.05822,0.230046 -0.270548,0.164295 -0.211443,-0.06546 0.02048,-0.07962 0.04289,-0.158461 0.07794,-0.232113 0.05319,-0.102401 0.116993,-0.197806 0.198093,-0.276039 0.08792,-0.08746 0.185534,-0.162367 0.293264,-0.217902 0.06956,-0.03067 0.140245,-0.05732 0.211012,-0.08441 0.07736,-0.02911 0.156357,-0.05229 0.234697,-0.07794 0.05882,-0.01769 0.117272,-0.03723 0.177423,-0.04909 0.05051,-0.0088 0.09982,-0.0219 0.148139,-0.04048 0.06455,-0.02203 0.130868,-0.03935 0.198523,-0.03746 0.0095,2.69e-4 0.01913,6.85e-4 0.02885,0.0017 0.01,0.0018 0.01961,0.0052 0.02928,0.0082 0.0049,-0.0017 0.01042,-0.0033 0.01637,-0.0043 4.7e-4,-8.1e-5 3.88e-4,-3.53e-4 8.61e-4,-4.31e-4 0.0131,-0.0069 0.0261,-0.01349 0.03962,-0.01938 0.02672,-0.01183 0.05352,-0.02436 0.08139,-0.03273 0.02293,-0.0061 0.04619,-0.01105 0.06976,-0.01249 0.0064,-3.33e-4 0.0133,-4.52e-4 0.01981,-4.3e-4 0.0162,5.4e-5 0.03211,0.0015 0.04823,0.0039 0.0067,-0.0016 0.01352,-0.0037 0.02024,-0.0052 0.03821,-0.0099 0.07683,-0.01644 0.115841,-0.0211 0.03093,-0.0036 0.06197,-0.0051 0.09302,-0.006 0.01617,-4.22e-4 0.0325,-2.39e-4 0.04866,-4.31e-4 z m 0.02842,9.349989 c 0.0011,-0.0026 0.0016,-0.0051 0.003,-0.0082 -0.0029,2.41e-4 -0.0064,5.1e-4 -0.0086,0.0013 -8.8e-4,2.57e-4 -0.002,6.03e-4 -0.0026,8.61e-4 0.0026,0.004 0.0053,0.0053 0.0082,0.006 z m 0.003,-0.0082 c 0.0049,-3.92e-4 0.0096,-9.53e-4 0.01335,-0.0022 0.0016,-0.0023 0.0027,-0.0038 0.0043,-0.0065 -0.0015,-0.0053 -0.0028,-0.01071 -0.0047,-0.01593 -0.0045,0.0085 -0.0097,0.01771 -0.01292,0.02455 z M 27.21002,21.066494 c -4.4e-5,6.25e-4 2.6e-5,0.0014 0,0.0022 7.21e-4,-3.86e-4 0.0014,-8.98e-4 0.0022,-0.0013 -7.66e-4,-1.75e-4 -0.0014,-6.49e-4 -0.0022,-8.62e-4 z m -0.286374,0.815627 c 4.16e-4,0.01408 0.0036,0.02762 0.0052,0.04177 -7.77e-4,-0.0093 0.0029,-0.01797 0.0034,-0.02713 -0.0031,-0.0046 -0.0054,-0.0099 -0.0086,-0.01464 z m 0.286805,0.614088 c -0.0015,0.0028 -0.0031,0.0054 -0.0047,0.0082 0.0015,-0.0021 0.003,-0.0039 0.0047,-0.006 5.2e-5,-6.34e-4 -9e-5,-0.0015 0,-0.0022 z m -0.173547,4.684469 c -0.0045,0.01077 -0.0086,0.02177 -0.01163,0.03316 -0.001,0.004 0.0071,0.01255 0.0082,0.0086 0.0037,-0.01338 0.0031,-0.02767 0.0034,-0.04177 z m -0.21661,0.427622 c 0.0021,0.0064 0.0043,0.01186 0.0073,0.01679 -7.28e-4,-0.0043 -0.0011,-0.0084 -0.0022,-0.01249 -5.62e-4,-0.0023 -0.0033,-0.003 -0.0052,-0.0043 z m -0.184313,0.475423 c -0.03693,0.01441 -0.07305,0.03103 -0.10809,0.05039 -0.009,0.0059 -0.01733,0.01397 -0.02713,0.01766 -0.0029,0.001 -0.005,-0.0049 -0.0082,-0.0047 -0.01248,0.0012 -0.0072,0.02794 -0.0052,0.03187 0.0049,0.01056 0.01279,0.01909 0.01895,0.02885 0.01058,0.01061 0.02336,0.01759 0.03445,0.02756 0.01828,-0.02457 0.03706,-0.04929 0.05555,-0.07364 0.0013,-0.0073 1.35e-4,-0.01492 0.003,-0.02196 0.0071,-0.02084 0.02337,-0.03633 0.03531,-0.05426 4.32e-4,-6.5e-4 9.37e-4,-9.23e-4 0.0013,-0.0017 z m 0.04349,0.248908 c 0.02137,0.009 0.044,0.01613 0.06718,0.02067 0.02042,0.004 0.03907,0.0066 0.05727,0.0082 -0.01035,-0.0064 -0.02019,-0.01383 -0.02885,-0.02239 -7.91e-4,-7.82e-4 -9.23e-4,-0.0027 -0.0017,-0.0052 -0.02353,0.0065 -0.04818,0.0084 -0.07321,0.0034 -0.0067,-0.0013 -0.01374,-0.0029 -0.02067,-0.0047 z m -5.763214,0.132206 c 0.04745,-4.4e-5 0.09318,0.04808 0.09173,0.144263 -8e-4,0.05314 -0.01742,0.102543 -0.03833,0.150723 -0.0232,0.04664 -0.05427,0.08899 -0.08871,0.127899 -0.03306,0.0409 -0.07511,0.07259 -0.116272,0.104645 -0.04274,0.03499 -0.08695,0.06819 -0.129191,0.103784 -0.05624,0.04819 -0.113165,0.09531 -0.172255,0.139957 -0.0068,0.0048 -0.04347,0.0307 -0.05297,0.0379 -0.06298,0.0475 -0.01973,0.05223 -0.09173,-0.05555 -0.0052,-0.0038 -0.0095,-0.0067 -0.01421,-0.0099 -0.02155,-0.0052 -0.03884,-0.0167 -0.04952,-0.03273 -0.0058,-0.0048 -0.0082,-0.0089 -0.0069,-0.01378 v -4.31e-4 c -0.01611,-0.04083 0.0017,-0.09937 0.07321,-0.146847 0.0419,-0.02782 0.08265,-0.05775 0.127899,-0.0801 0.0432,-0.03404 0.09049,-0.06218 0.137804,-0.09 0.07052,-0.03793 0.08018,-0.06 0.09862,-0.03703 0.01859,-0.01508 0.03628,-0.03135 0.05125,-0.05039 0.02153,-0.02276 0.03927,-0.0489 0.05512,-0.07579 0.01068,-0.02337 0.02036,-0.04642 0.02196,-0.07235 0.006,-0.09601 0.05504,-0.144219 0.102491,-0.144263 z m 5.913076,1.140327 c -0.0049,0.0063 -0.0043,0.0107 -0.0039,0.01034 0.002,-0.0012 0.0024,-0.0041 0.0039,-0.006 -4.7e-5,-0.0015 4.6e-5,-0.0027 0,-0.0043 z m -4.193543,0.891418 c 0.0267,-0.0012 0.04539,0.03541 0.0211,0.08397 -0.01324,0.02646 -0.02382,0.05401 -0.03531,0.08139 -0.0031,0.0071 -0.0066,0.01477 -0.0099,0.02196 -0.03463,0.07537 -0.104112,0.03694 -0.06933,-0.03833 0.0028,-0.0064 0.0059,-0.01263 0.0086,-0.01895 0.01319,-0.03138 0.02471,-0.06414 0.04091,-0.09388 0.01355,-0.02491 0.02992,-0.03553 0.04392,-0.03617 z m 4.077271,0.05038 c 0.05494,0 0.109812,0.05977 0.109812,0.179145 v 0.231252 c -2.32e-4,0.01192 0.0027,0.02341 0.0026,0.03531 0.0326,0.04536 0.06522,0.0908 0.09732,0.136512 0.0629,0.08425 0.11596,0.179223 0.188619,0.254506 0.05322,0.05515 0.175356,0.154099 0.232975,0.190772 0.06979,0.04441 0.143943,0.08063 0.215749,0.121009 0.759462,0.358203 1.556276,0.609766 2.353861,0.842326 0.2103,0.06132 0.153877,0.294315 -0.05641,0.232975 -0.275266,-0.08028 -0.550636,-0.163245 -0.824239,-0.251492 -0.02697,0.02533 -0.06678,0.04376 -0.124885,0.04393 -0.120377,3.6e-4 -0.240451,-0.0033 -0.360012,-0.02024 -0.228934,-0.02972 -0.456686,-0.07251 -0.678684,-0.14211 -0.16539,-0.05798 -0.329048,-0.122279 -0.481883,-0.214027 -0.114311,-0.06789 -0.225505,-0.140287 -0.320824,-0.238573 -0.07843,-0.07523 -0.153173,-0.15507 -0.221778,-0.241157 -0.05273,-0.07004 -0.09965,-0.144568 -0.137374,-0.225653 -0.03572,-0.08171 -0.0658,-0.166348 -0.0857,-0.254507 -0.0086,-0.04671 -0.007,-0.09438 -0.0099,-0.141679 -0.05005,-0.0682 -0.101662,-0.135013 -0.155891,-0.199385 -0.101542,-0.120561 -0.05991,-0.23855 0.02412,-0.243741 0.03695,-0.0024 0.0821,0.01782 0.127038,0.06847 0.006,-0.105957 0.05373,-0.163643 0.105506,-0.163643 z m 0.502123,1.222579 v 4.3e-4 c 5.35e-4,2.68e-4 0.0012,4.45e-4 0.0017,8.62e-4 -5.09e-4,-5.22e-4 -0.0012,-7.69e-4 -0.0017,-0.0013 z m 0.0017,0.0013 c 0.08196,0.08397 0.177552,0.146027 0.275608,0.204122 0.140823,0.08459 0.291604,0.142593 0.443987,0.195939 0.11138,0.03448 0.223992,0.06122 0.337619,0.08354 -0.275302,-0.104343 -0.547642,-0.217311 -0.815196,-0.34451 -0.07984,-0.04569 -0.16182,-0.08724 -0.239434,-0.137373 -6.79e-4,-5e-4 -0.0017,-0.0011 -0.0026,-0.0017 z"
       inkscape:label="rect1"
       transform="matrix(1.11,0,0,1.11,-2.6356732,-2.7483366)" />
    <g
       id="g138"
       transform="matrix(1.332,0,0,1.332,-7.9166075,-8.2630487)"
       style="display:inline">
      <path
         id="text2"
         style="font-style:normal;font-variant:normal;font-weight:normal;font-stretch:normal;font-size:21.1667px;font-family:Sans;-inkscape-font-specification:Sans;fill:#f9f9f9;fill-opacity:1;stroke-width:0.220832;stroke-dasharray:none"
         d="m 15.679732,16.867372 c -1.129992,0 -2.160074,0.175699 -3.090251,0.527099 -0.923286,0.3514 -1.712212,0.861274 -2.36678,1.529623 -0.6752389,0.689019 -1.1920024,1.533066 -1.5502924,2.532145 -0.35829,0.999078 -0.537435,2.132513 -0.537435,3.400309 0,1.336698 0.186035,2.511474 0.558105,3.524333 0.372071,1.005968 0.8888345,1.836235 1.5502924,2.490804 0.675239,0.668349 1.46761,1.160997 2.377116,1.477946 0.916396,0.310058 1.932698,0.465088 3.04891,0.465088 0.592557,0 1.133436,-0.04823 1.62264,-0.144694 0.496094,-0.08957 0.954291,-0.199816 1.374593,-0.33073 0.496094,-0.158474 0.895724,-0.310058 1.198893,-0.454752 0.310059,-0.144694 0.654568,-0.299723 1.033529,-0.465088 v -2.397787 h -0.144694 c -0.751032,0.67524 -1.557183,1.181668 -2.418457,1.519288 -0.861275,0.337619 -1.784559,0.506429 -2.769857,0.506429 -0.71658,0 -1.398709,-0.120579 -2.046387,-0.361735 -0.640788,-0.248047 -1.202338,-0.627007 -1.684652,-1.136882 -0.461643,-0.489204 -0.840603,-1.123101 -1.136881,-1.901693 -0.289388,-0.778592 -0.434082,-1.708766 -0.434082,-2.790527 0,-1.033529 0.130913,-1.943033 0.392741,-2.728516 0.268717,-0.792372 0.640787,-1.446939 1.116211,-1.963704 0.489204,-0.530545 1.043863,-0.91984 1.663981,-1.167887 0.627008,-0.254938 1.329806,-0.382406 2.108398,-0.382406 0.950847,0 1.843126,0.161919 2.67684,0.485758 0.833713,0.32384 1.674315,0.840603 2.521809,1.550293 h 0.15503 V 18.221294 C 19.893083,17.71831 18.976689,17.366911 18.149866,17.167095 17.329932,16.967279 16.506555,16.867372 15.679732,16.867372 Z" />
      <path
         id="text3"
         style="font-style:normal;font-variant:normal;font-weight:normal;font-stretch:normal;font-size:21.1667px;font-family:Sans;-inkscape-font-specification:Sans;fill:#f9f9f9;fill-opacity:1;stroke-width:0.220832;stroke-dasharray:none"
         d="m 27.859006,17.261404 c -0.0027,3.96e-4 -0.0054,9.11e-4 -0.0082,0.0013 -0.01147,0.0027 -0.02254,0.006 -0.03402,0.0086 -0.01118,0.0022 -0.02221,0.0057 -0.03359,0.0069 -0.01291,0.0019 -0.02617,0.0029 -0.03919,0.0039 h -0.0047 c -0.02251,0.0071 -0.04746,0.01244 -0.07665,0.01421 -0.03369,0.002 -0.06746,0.0025 -0.101199,0.0035 -0.01588,0.0028 -0.03178,0.0052 -0.0478,0.0073 -0.01797,0.0027 -0.03591,0.0065 -0.05383,0.0095 -0.01707,0.0025 -0.03426,0.0052 -0.05125,0.0082 -0.01447,0.0025 -0.02902,0.004 -0.0435,0.0065 -0.01716,0.0033 -0.03408,0.0061 -0.05125,0.0095 -0.02049,0.0043 -0.04137,0.0082 -0.06158,0.01378 -0.01926,0.0045 -0.0384,0.0096 -0.05727,0.0155 -0.01612,0.0052 -0.03236,0.01 -0.04866,0.01464 -0.01599,0.0049 -0.03189,0.0095 -0.0478,0.01464 -0.01404,0.0042 -0.02807,0.009 -0.0422,0.01292 -0.01387,0.0042 -0.02775,0.0079 -0.04177,0.01163 -0.01441,0.0042 -0.02865,0.0087 -0.04306,0.01292 -0.01498,0.004 -0.03006,0.0081 -0.04479,0.01292 -0.0174,0.0058 -0.03499,0.01107 -0.05254,0.01636 -0.01767,0.0058 -0.03539,0.01173 -0.0534,0.01636 -0.01749,0.0054 -0.03485,0.01027 -0.05211,0.01636 -0.01139,0.0033 -0.02202,0.0085 -0.03316,0.01249 -0.01137,0.0044 -0.02313,0.0089 -0.03445,0.01335 -0.0118,0.0048 -0.02332,0.0098 -0.03488,0.01507 -0.01353,0.0054 -0.02713,0.01031 -0.04091,0.01507 -0.01665,0.005 -0.03319,0.01005 -0.04995,0.01464 -0.01122,0.0036 -0.0225,0.0075 -0.03316,0.01249 -0.009,0.0047 -0.0177,0.0099 -0.0267,0.01464 -0.0097,0.005 -0.01912,0.01023 -0.02842,0.01593 -0.01074,0.0064 -0.02157,0.013 -0.0323,0.01938 -0.0055,0.0033 -0.01072,0.0054 -0.0155,0.0065 v 1.88576 c 0.04563,-0.0285 0.09269,-0.0545 0.141679,-0.07751 0.08697,-0.03496 0.175501,-0.06517 0.263981,-0.09603 0.09673,-0.03317 0.195314,-0.05947 0.293264,-0.08871 0.07355,-0.02015 0.146568,-0.04246 0.221778,-0.05598 0.06316,-0.01 0.125184,-0.02533 0.185604,-0.04651 0.08072,-0.0251 0.163456,-0.04478 0.248047,-0.04263 0.01208,3.07e-4 0.02401,9.65e-4 0.03617,0.0022 0.01254,0.002 0.02453,0.0056 0.0366,0.009 0.0061,-0.002 0.01288,-0.0036 0.02024,-0.0047 5.88e-4,-9.2e-5 0.0011,-3.43e-4 0.0017,-4.31e-4 0.01636,-0.0079 0.03303,-0.01525 0.04995,-0.02196 0.03344,-0.01348 0.06677,-0.02793 0.10163,-0.03746 0.02867,-0.0069 0.05792,-0.01257 0.08742,-0.01421 0.0081,-3.8e-4 0.016,-4.56e-4 0.02412,-4.31e-4 0.02025,6.2e-5 0.04057,0.0016 0.06072,0.0043 0.0084,-0.0018 0.01658,-0.0043 0.02498,-0.006 0.04777,-0.01133 0.09637,-0.01837 0.145125,-0.02369 0.03867,-0.004 0.07742,-0.0058 0.116272,-0.0069 0.0202,-4.8e-4 0.04052,-6.42e-4 0.06072,-8.61e-4 0.01275,-1.38e-4 0.0245,0.001 0.03488,0.003 h 1.813843 c 0.950808,0 1.767334,0.0689 2.449463,0.206706 0.68209,0.130909 1.3264,0.368636 1.932698,0.713134 0.833714,0.475386 1.460721,1.126585 1.881023,1.95337 0.420262,0.826784 0.630452,1.843164 0.630452,3.048909 0,1.198855 -0.192925,2.19801 -0.578776,2.997233 -0.378961,0.799224 -0.950846,1.443495 -1.715658,1.932699 -0.613188,0.392702 -1.288465,0.661458 -2.025716,0.806152 -0.730321,0.144694 -1.588227,0.217041 -2.573486,0.217041 h -1.922363 v -0.01034 c -0.0039,4.5e-4 -0.0078,0.0012 -0.01163,0.0017 -0.02089,0.0045 -0.04086,-9.46e-4 -0.06029,-0.0082 -0.04245,-0.01563 -0.04473,-0.05117 -0.02325,-0.06503 -0.01274,-0.01525 -0.02342,-0.03507 -0.02627,-0.06589 -0.0019,-0.02074 -0.0026,-0.04162 -0.0034,-0.06244 -0.002,-0.03366 -0.0051,-0.06712 -0.0073,-0.100769 -9e-4,-0.03862 0.0016,-0.07712 0.0069,-0.11541 0.0012,-0.0081 0.0021,-0.01609 0.0034,-0.02412 -0.09365,0.02161 -0.190253,0.02494 -0.285943,0.0211 -0.05858,-0.0046 -0.115718,-0.01722 -0.172254,-0.0323 -0.248138,0.02905 -0.4966,0.05694 -0.745002,0.08354 -0.222685,0.02449 -0.44556,0.04879 -0.667057,0.08268 -0.01809,0.0028 -0.03619,0.0057 -0.05426,0.0086 v 1.422394 c 0.07352,0.09222 0.137725,0.193763 0.223931,0.275177 0.06654,0.06284 0.219501,0.175251 0.291541,0.217041 0.08144,0.04724 0.167399,0.08675 0.251492,0.129191 h 3.119104 c 1.412412,0 2.549409,-0.09646 3.410644,-0.289388 0.868126,-0.192926 1.653685,-0.506468 2.356445,-0.940511 1.01282,-0.627008 1.822456,-1.509029 2.428793,-2.645833 0.613188,-1.136844 0.91984,-2.404715 0.91984,-3.803386 0,-1.495094 -0.292871,-2.787121 -0.878499,-3.875732 -0.585269,-1.086755 -1.402217,-1.960194 -2.449488,-2.614735 -0.613188,-0.378949 -1.364296,-0.675246 -2.253092,-0.888834 -0.881945,-0.220479 -2.073986,-0.330728 -3.57601,-0.330728 z m -1.41981,2.992496 v 0.03661 c 0.0075,-0.0092 0.01468,-0.01862 0.02239,-0.02756 -0.0076,-0.0026 -0.01502,-0.0059 -0.02239,-0.009 z m 0.347524,0.293264 c -5.4e-5,7.13e-4 3.3e-5,0.0014 0,0.0022 8.98e-4,-4.41e-4 0.0017,-8.29e-4 0.0026,-0.0013 -9.58e-4,-2e-4 -0.0017,-6.2e-4 -0.0026,-8.61e-4 z m -0.347524,1.00726 v 0.0082 c 5.79e-4,0.0018 0.0011,0.0038 0.0017,0.0056 -5.65e-4,-0.0046 -0.0011,-0.0092 -0.0017,-0.01378 z m 0.347955,0.62184 c -0.0019,0.0032 -0.004,0.0063 -0.006,0.0095 0.0019,-0.0023 0.0037,-0.0046 0.0056,-0.0069 7.9e-5,-8.68e-4 3.5e-4,-0.0017 4.31e-4,-0.0026 z m -0.347955,0.9263 v 0.03746 c 4.1e-4,-0.0093 6.39e-4,-0.01868 0.0013,-0.02799 1.19e-4,-0.0026 3.18e-4,-0.0052 4.3e-4,-0.0078 -5.25e-4,-6.13e-4 -0.0012,-0.0011 -0.0017,-0.0017 z m 0.130914,4.411875 c -0.0057,0.01228 -0.01097,0.02493 -0.01464,0.0379 -0.0013,0.0046 0.0089,0.01441 0.01034,0.0099 0.0047,-0.01524 0.004,-0.03174 0.0043,-0.0478 z m 1.915473,2.256538 c -0.0083,0.0041 -0.0152,0.0076 -0.02541,0.01292 0.0033,0.0023 0.0061,0.0051 0.0086,0.009 6.91e-4,0.0011 0.0011,0.0023 0.0017,0.0034 0.005,7.8e-5 0.01005,-7.3e-5 0.01507,0 z m -2.046387,0.04177 v 0.0013 c 8.31e-4,-2.45e-4 0.0018,-1.85e-4 0.0026,-4.3e-4 -8.32e-4,-3.39e-4 -0.0018,-5.16e-4 -0.0026,-8.61e-4 z" />
      <path
         style="fill:none;fill-opacity:1;stroke:#ffffff;stroke-width:1.83333;stroke-dasharray:none;stroke-opacity:1"
         d="m 20.372271,30.60604 c 1.271437,-0.757343 3.094099,-3.032244 3.306667,-6.435651 0.03745,-0.599537 0.158412,-1.554578 0.426414,-2.675441 0.522517,-2.185322 2.760068,-3.392398 4.082719,-3.295278"
         id="path4"
         sodipodi:nodetypes="cssc" />
      <path
         style="fill:none;fill-opacity:1;stroke:#ffffff;stroke-width:1.91667;stroke-dasharray:none;stroke-opacity:1"
         d="m 27.421094,31.512166 -0.03887,-6.063247 v 0 l 0.03887,-0.971678"
         id="path53"
         sodipodi:nodetypes="cccc" />
      <path
         style="fill:none;fill-opacity:1;stroke:#ffffff;stroke-width:1.83333;stroke-linecap:round;stroke-dasharray:none;stroke-opacity:1"
         d="m 27.34698,21.66685 c 0,0 3.94853,-0.0668 5.08437,0.08245 1.781981,0.234148 2.091377,2.169833 2.088716,3.188038 -0.0027,1.018205 -0.470505,2.968664 -2.253612,3.133074 -1.558954,0.143743 -4.754576,-0.02748 -4.754576,-0.02748"
         id="path92"
         sodipodi:nodetypes="cszsc" />
    </g>
  </g>
</svg>
