<?xml version="1.0" encoding="UTF-8" standalone="no"?>
<!-- Created with Inkscape (http://www.inkscape.org/) -->

<svg
   width="580.276pt"
   height="580.89001pt"
   viewBox="0 0 204.70848 204.92506"
   version="1.1"
   id="svg1"
   xml:space="preserve"
   sodipodi:docname="firebase_services.svg"
   inkscape:version="1.3.2 (091e20e, 2023-11-25, custom)"
   xmlns:inkscape="http://www.inkscape.org/namespaces/inkscape"
   xmlns:sodipodi="http://sodipodi.sourceforge.net/DTD/sodipodi-0.dtd"
   xmlns="http://www.w3.org/2000/svg"
   xmlns:svg="http://www.w3.org/2000/svg"><sodipodi:namedview
     id="namedview1"
     pagecolor="#505050"
     bordercolor="#ffffff"
     borderopacity="1"
     inkscape:showpageshadow="0"
     inkscape:pageopacity="0"
     inkscape:pagecheckerboard="1"
     inkscape:deskcolor="#505050"
     inkscape:document-units="mm"
     inkscape:zoom="1.0503848"
     inkscape:cx="335.11527"
     inkscape:cy="385.09695"
     inkscape:window-width="1920"
     inkscape:window-height="974"
     inkscape:window-x="-11"
     inkscape:window-y="-11"
     inkscape:window-maximized="1"
     inkscape:current-layer="layer1" /><defs
     id="defs1" /><g
     inkscape:label="Layer 1"
     inkscape:groupmode="layer"
     id="layer1"
     transform="translate(-63.44576,-55.207092)"><path
       style="fill:#000000;fill-opacity:0;stroke:#000000;stroke-width:1.07117;stroke-linecap:butt;stroke-dasharray:12.8541, 1.07117;stroke-dashoffset:0;stroke-opacity:1"
       id="path16"
       sodipodi:type="arc"
       sodipodi:cx="165.66513"
       sodipodi:cy="154.09506"
       sodipodi:rx="63.180614"
       sodipodi:ry="63.180614"
       sodipodi:start="0.16306887"
       sodipodi:end="0.035652833"
       sodipodi:open="true"
       sodipodi:arc-type="arc"
       d="m 228.00757,164.35225 a 63.180614,63.180614 0 0 1 -70.60891,52.38031 63.180614,63.180614 0 0 1 -54.60252,-68.90485 63.180614,63.180614 0 0 1 67.13088,-56.769354 63.180614,63.180614 0 0 1 58.87857,65.288794" /><g
       id="g28"
       inkscape:label="phone"
       transform="matrix(0.89720125,0,0,0.89720125,-36.96308,83.983235)"><rect
         style="fill:#000007;fill-opacity:1;fill-rule:nonzero;stroke:#000007;stroke-width:4;stroke-dasharray:none;stroke-opacity:1"
         id="rect25"
         width="65"
         height="137.86198"
         x="119.4167"
         y="9.4708328"
         rx="2.3065734"
         ry="4.139833" /><rect
         style="fill:#e8e8e8;fill-opacity:1;fill-rule:nonzero;stroke:#000007;stroke-width:4;stroke-dasharray:none;stroke-opacity:0"
         id="rect26"
         width="64.61705"
         height="128.45757"
         x="119.4167"
         y="9.4708328"
         rx="2.6170514"
         ry="3.0000005" /><path
         style="fill:#ffffff;fill-opacity:1;fill-rule:nonzero;stroke:#000007;stroke-width:4.80152;stroke-dasharray:none;stroke-opacity:0"
         id="path28"
         sodipodi:type="arc"
         sodipodi:cx="151.88858"
         sodipodi:cy="142.47177"
         sodipodi:rx="3.000953"
         sodipodi:ry="3.0009527"
         sodipodi:start="0.16306887"
         sodipodi:end="0.035652833"
         sodipodi:arc-type="arc"
         d="m 154.84972,142.95897 a 3.000953,3.0009527 0 0 1 -3.35378,2.48796 3.000953,3.0009527 0 0 1 -2.59351,-3.27285 3.000953,3.0009527 0 0 1 3.18858,-2.69643 3.000953,3.0009527 0 0 1 2.79662,3.10109"
         sodipodi:open="true" /><rect
         style="fill:#ffffff;fill-opacity:1;stroke:#686868;stroke-width:0.282108;stroke-dasharray:none;stroke-opacity:1"
         id="rect1"
         width="59.88306"
         height="79.923805"
         x="74.866989"
         y="106.60306"
         rx="7.8120956"
         ry="8.2164297"
         transform="translate(46.916702,-72.865346)" /><rect
         style="fill:#f2f2f2;fill-opacity:1;stroke:#686868;stroke-width:0.539795;stroke-dasharray:none;stroke-opacity:1"
         id="rect2"
         width="55.022045"
         height="7.513114"
         x="77.297501"
         y="132.16582"
         rx="3.7985263"
         ry="5.4617052"
         transform="translate(46.916702,-72.865346)" /><rect
         style="fill:#f2f2f2;fill-opacity:1;stroke:#686868;stroke-width:0.323341;stroke-dasharray:none;stroke-opacity:1"
         id="rect2-0"
         width="54.720066"
         height="7.5295687"
         x="77.639969"
         y="144.17816"
         rx="3.6392219"
         ry="5.4736671"
         transform="translate(46.916702,-72.865346)" /><rect
         style="fill:#20dcd3;fill-opacity:1;stroke:#000048;stroke-width:0.310993;stroke-dasharray:none;stroke-opacity:1"
         id="rect2-0-4"
         width="50.465778"
         height="9.445981"
         x="79.454109"
         y="168.87889"
         rx="5.7391849"
         ry="6.8668146"
         transform="translate(46.916702,-72.865346)" /><text
         xml:space="preserve"
         style="font-size:7.05556px;font-family:Calibri;-inkscape-font-specification:Calibri;fill:#000cc8;fill-opacity:1;stroke:#20dcd3;stroke-width:0.499999;stroke-dasharray:none;stroke-opacity:1"
         x="94.400879"
         y="116.46952"
         id="text2"
         transform="translate(46.916702,-72.865346)"><tspan
           sodipodi:role="line"
           style="font-size:7.05556px;fill:#000cc8;stroke:#20dcd3;stroke-width:0.5;stroke-opacity:1"
           x="94.400879"
           y="116.46952"
           id="tspan3">Sign up</tspan></text><text
         xml:space="preserve"
         style="font-style:normal;font-variant:normal;font-weight:normal;font-stretch:normal;font-size:3.52778px;font-family:'Yu Gothic UI';-inkscape-font-specification:'Yu Gothic UI';fill:#b8b8b8;fill-opacity:1;stroke:#aeaeae;stroke-width:0.499999;stroke-dasharray:none;stroke-opacity:1"
         x="85.109955"
         y="137.05923"
         id="text4"
         transform="translate(46.916702,-72.865346)"><tspan
           sodipodi:role="line"
           id="tspan4"
           style="font-style:normal;font-variant:normal;font-weight:normal;font-stretch:normal;font-size:3.52778px;font-family:Arial;-inkscape-font-specification:Arial;fill:#b8b8b8;fill-opacity:1;stroke:#aeaeae;stroke-width:0.5;stroke-opacity:1"
           x="85.109955"
           y="137.05923">Email</tspan><tspan
           sodipodi:role="line"
           style="font-style:normal;font-variant:normal;font-weight:normal;font-stretch:normal;font-size:3.52778px;font-family:'Yu Gothic UI';-inkscape-font-specification:'Yu Gothic UI';fill:#b8b8b8;fill-opacity:1;stroke:#aeaeae;stroke-width:0.5;stroke-opacity:1"
           x="85.109955"
           y="141.46896"
           id="tspan7" /></text><text
         xml:space="preserve"
         style="font-size:3.52777px;font-family:Calibri;-inkscape-font-specification:Calibri;fill:#000cc8;fill-opacity:1;stroke:#b8b8b8;stroke-width:0.499999;stroke-dasharray:none;stroke-opacity:1"
         x="85.453171"
         y="149.18489"
         id="text5"
         transform="translate(46.916702,-72.865346)"><tspan
           sodipodi:role="line"
           style="font-style:normal;font-variant:normal;font-weight:normal;font-stretch:normal;font-family:Arial;-inkscape-font-specification:Arial;stroke:#b8b8b8;stroke-width:0.5;stroke-opacity:1"
           x="85.453171"
           y="149.18489"
           id="tspan6">Password</tspan></text><text
         xml:space="preserve"
         style="font-style:normal;font-variant:normal;font-weight:normal;font-stretch:normal;font-size:3.88056px;font-family:'Times New Roman';-inkscape-font-specification:'Times New Roman, ';fill:#20dcd3;fill-opacity:1;stroke:#20dcd3;stroke-width:0.499999;stroke-dasharray:none;stroke-opacity:1"
         x="96.885933"
         y="175.09293"
         id="text8"
         transform="translate(46.916702,-72.865346)"><tspan
           sodipodi:role="line"
           id="tspan8"
           style="font-style:normal;font-variant:normal;font-weight:normal;font-stretch:normal;font-size:3.88056px;font-family:Arial;-inkscape-font-specification:Arial;stroke:#ffffff;stroke-width:0.5;stroke-opacity:1"
           x="96.885933"
           y="175.09293">SIGN IN</tspan></text><g
         id="g8"
         transform="translate(47.975035,-72.336179)"><path
           d="m 116.33735,158.24708 c -0.2241,0.10186 -0.46566,0.1688 -0.71596,0.20081 0.25612,-0.15424 0.45403,-0.39872 0.54715,-0.69267 -0.24156,0.14552 -0.50932,0.24738 -0.79162,0.30559 -0.22992,-0.25029 -0.55298,-0.39581 -0.9197,-0.39581 -0.68395,0 -1.24275,0.5588 -1.24275,1.24857 0,0.099 0.0117,0.19499 0.032,0.28521 -1.03612,-0.0524 -1.95872,-0.55006 -2.57283,-1.30386 -0.10769,0.18335 -0.1688,0.39873 -0.1688,0.62574 0,0.43365 0.21829,0.81782 0.55589,1.03611 -0.20664,0 -0.39873,-0.0582 -0.56754,-0.14552 0,0 0,0 0,0.009 0,0.60536 0.43075,1.11177 1.0012,1.22528 -0.10483,0.0291 -0.21538,0.0437 -0.32889,0.0437 -0.0785,0 -0.15715,-0.009 -0.23282,-0.0233 0.15715,0.49186 0.61409,0.85857 1.16417,0.8673 -0.42493,0.33761 -0.96336,0.53552 -1.55126,0.53552 -0.099,0 -0.19791,-0.006 -0.29687,-0.0175 0.55298,0.35507 1.21075,0.5617 1.91507,0.5617 2.29342,0 3.55363,-1.90341 3.55363,-3.55361 0,-0.0553 0,-0.10769 -0.003,-0.16299 0.24448,-0.17463 0.45403,-0.39581 0.62284,-0.64902 z"
           id="path1"
           style="fill:#686868;fill-opacity:1;stroke-width:0.291041" /><path
           d="m 103.39757,156.55156 c -1.60075,0 -2.91044,1.30678 -2.91044,2.91623 0,1.45521 1.06522,2.66303 2.45641,2.88132 v -2.03729 h -0.73925 v -0.84403 h 0.73925 v -0.6432 c 0,-0.73051 0.43365,-1.13215 1.10014,-1.13215 0.31724,0 0.64903,0.0553 0.64903,0.0553 v 0.71888 H 104.326 c -0.3609,0 -0.47441,0.2241 -0.47441,0.45402 v 0.54715 h 0.80911 l -0.13097,0.84403 h -0.67814 v 2.03729 a 2.9104166,2.9104166 0 0 0 2.4564,-2.88132 c 0,-1.60945 -1.30968,-2.91623 -2.91042,-2.91623 z"
           id="path1-7"
           style="fill:#686868;fill-opacity:1;stroke-width:0.291041" /><path
           d="m 96.291751,159.77048 h -2.66884 v 0.79455 h 1.894678 c -0.09603,1.10886 -1.018641,1.58326 -1.891768,1.58326 -1.114689,0 -2.092589,-0.87894 -2.092589,-2.11587 0,-1.19327 0.931333,-2.11587 2.0955,-2.11587 0.899322,0 1.426098,0.57335 1.426098,0.57335 l 0.552978,-0.57627 c 0,0 -0.710132,-0.79162 -2.00818,-0.79162 -1.653117,0 -2.930791,1.397 -2.930791,2.91041 0,1.46975 1.202003,2.91041 2.974447,2.91041 1.557065,0 2.692126,-1.06812 2.692126,-2.64556 0,-0.3347 -0.04367,-0.52679 -0.04367,-0.52679 z"
           id="path1-0"
           style="fill:#686868;fill-opacity:1;stroke-width:0.291041" /></g><path
         d="m 81.711299,148.78778 a 0.4048125,0.4048125 0 0 0 0.404812,-0.40482 c 0,-0.22467 -0.182165,-0.40481 -0.404812,-0.40481 a 0.4048125,0.4048125 0 0 0 -0.404813,0.40481 0.4048125,0.4048125 0 0 0 0.404813,0.40482 m 1.214435,-1.82166 a 0.4048125,0.4048125 0 0 1 0.404812,0.40482 v 2.02405 a 0.4048125,0.4048125 0 0 1 -0.404812,0.40482 h -2.428873 a 0.4048125,0.4048125 0 0 1 -0.404812,-0.40482 v -2.02405 c 0,-0.22467 0.182165,-0.40482 0.404812,-0.40482 h 0.202407 v -0.40482 a 1.0120313,1.0120312 0 0 1 1.012031,-1.01202 1.0120313,1.0120312 0 0 1 1.012034,1.01202 v 0.40482 h 0.202401 m -1.214435,-1.01203 a 0.60721875,0.60721875 0 0 0 -0.607219,0.60721 v 0.40482 h 1.214438 v -0.40482 a 0.60721875,0.60721875 0 0 0 -0.607219,-0.60721 z"
         id="path1-3"
         style="fill:#686868;fill-opacity:1;stroke-width:0.202406"
         transform="translate(46.916702,-72.865346)" /><path
         d="m 81.405784,134.09591 a 0.95249997,0.95249997 0 0 1 0.952497,0.95249 0.95249997,0.95249997 0 0 1 -0.952497,0.9525 0.95249997,0.95249997 0 0 1 -0.9525,-0.9525 0.95249997,0.95249997 0 0 1 0.9525,-0.95249 m 0,2.38124 c 1.052514,0 1.905003,0.42624 1.905003,0.9525 v 0.47625 h -3.810003 v -0.47625 c 0,-0.52626 0.852488,-0.9525 1.905,-0.9525 z"
         id="path1-4"
         style="fill:#686868;fill-opacity:1;stroke-width:0.238125"
         transform="translate(46.916702,-72.865346)" /></g><g
       style="fill:none"
       id="g9"
       transform="matrix(0.13051226,0,0,0.13051226,168.78895,137.83613)"
       inkscape:label="firebase"><path
         d="m 707.39,161.434 c -7.234,0 -13.775,-1.685 -19.622,-5.055 -5.747,-3.369 -10.256,-8.027 -13.527,-13.973 -3.27,-6.045 -4.905,-12.783 -4.905,-20.216 0,-7.135 1.536,-13.676 4.608,-19.622 3.171,-6.0446 7.581,-10.8014 13.23,-14.2699 5.648,-3.5675 12.09,-5.3513 19.324,-5.3513 7.433,0 13.874,1.6351 19.325,4.9054 5.549,3.2703 9.761,7.8289 12.635,13.6758 2.874,5.748 4.311,12.387 4.311,19.919 0,0.892 -0.05,1.784 -0.149,2.676 -0.099,0.891 -0.149,1.387 -0.149,1.486 h -56.784 c 0.496,6.739 2.924,11.942 7.284,15.608 4.361,3.667 9.315,5.5 14.865,5.5 8.523,0 15.063,-3.964 19.622,-11.892 l 13.973,6.69 c -3.271,6.045 -7.829,10.9 -13.676,14.567 -5.748,3.568 -12.536,5.352 -20.365,5.352 z m 18.73,-48.311 c -0.198,-2.379 -0.991,-4.807 -2.378,-7.284 -1.388,-2.478 -3.568,-4.559 -6.541,-6.2435 -2.874,-1.7838 -6.491,-2.6757 -10.851,-2.6757 -4.856,0 -9.068,1.4865 -12.636,4.4592 -3.468,2.973 -5.846,6.888 -7.135,11.744 z"
         fill="#5e5e5e"
         id="path1-8" /><path
         d="m 633.449,161.434 c -8.424,0 -15.41,-1.933 -20.96,-5.798 -5.45,-3.964 -9.315,-8.919 -11.594,-14.865 l 14.567,-6.243 c 1.685,4.063 4.113,7.135 7.284,9.216 3.27,2.081 6.838,3.122 10.703,3.122 4.063,0 7.383,-0.743 9.959,-2.23 2.577,-1.585 3.865,-3.617 3.865,-6.094 0,-2.379 -1.04,-4.311 -3.122,-5.798 -2.081,-1.585 -5.5,-2.973 -10.256,-4.162 l -10.109,-2.378 c -5.549,-1.289 -10.355,-3.667 -14.418,-7.135 -3.964,-3.568 -5.946,-8.176 -5.946,-13.825 0,-6.8377 2.824,-12.2386 8.473,-16.2026 5.648,-4.0631 12.585,-6.0946 20.81,-6.0946 6.838,0 12.883,1.4369 18.136,4.3108 5.351,2.8739 9.216,7.0361 11.594,12.4865 l -14.419,6.0949 c -1.387,-3.072 -3.518,-5.352 -6.392,-6.8381 -2.874,-1.4865 -5.995,-2.2298 -9.364,-2.2298 -3.271,0 -6.145,0.7433 -8.622,2.2298 -2.478,1.3871 -3.716,3.2701 -3.716,5.6491 0,2.081 0.842,3.765 2.527,5.054 1.783,1.288 4.558,2.378 8.324,3.27 l 11,2.676 c 7.432,1.882 12.982,4.756 16.649,8.621 3.666,3.766 5.5,8.325 5.5,13.676 0,4.36 -1.338,8.324 -4.014,11.892 -2.576,3.567 -6.193,6.392 -10.851,8.473 -4.559,2.081 -9.761,3.122 -15.608,3.122 z"
         fill="#5e5e5e"
         id="path2" /><path
         d="m 555.223,161.434 c -5.252,0 -10.009,-1.041 -14.27,-3.122 -4.162,-2.18 -7.482,-5.153 -9.96,-8.919 -2.378,-3.865 -3.567,-8.225 -3.567,-13.081 0,-7.73 2.874,-13.825 8.621,-18.284 5.847,-4.46 13.23,-6.689 22.149,-6.689 7.829,0 14.518,1.338 20.068,4.013 v -3.121 c 0,-4.46 -1.784,-8.126 -5.352,-11 -3.468,-2.9734 -7.68,-4.4599 -12.635,-4.4599 -7.531,0 -13.576,3.0721 -18.135,9.2159 l -12.486,-8.6213 c 3.468,-4.6576 7.779,-8.2252 12.932,-10.7027 5.252,-2.4775 11.149,-3.7162 17.689,-3.7162 10.802,0 19.126,2.7252 24.973,8.1757 5.946,5.3513 8.919,12.9325 8.919,22.7435 v 45.189 h -15.905 v -9.067 h -0.892 c -2.378,3.369 -5.401,6.144 -9.068,8.324 -3.666,2.081 -8.027,3.122 -13.081,3.122 z m 2.676,-13.528 c 3.667,0 7.036,-0.891 10.108,-2.675 3.171,-1.883 5.649,-4.311 7.432,-7.284 1.883,-3.072 2.825,-6.342 2.825,-9.811 -5.252,-2.874 -10.852,-4.311 -16.798,-4.311 -5.45,0 -9.711,1.189 -12.783,3.568 -3.072,2.378 -4.608,5.401 -4.608,9.067 0,3.37 1.337,6.145 4.013,8.325 2.775,2.081 6.045,3.121 9.811,3.121 z"
         fill="#5e5e5e"
         id="path3" /><path
         d="m 486.618,161.433 c -5.352,0 -10.158,-1.139 -14.419,-3.419 -4.162,-2.279 -7.284,-5.153 -9.365,-8.621 h -0.892 v 9.662 h -15.46 V 52.6221 h 16.352 v 31.9595 l -0.892,10.2568 h 0.892 c 2.081,-3.3694 5.203,-6.1937 9.365,-8.473 4.261,-2.2793 9.067,-3.4189 14.419,-3.4189 6.342,0 12.189,1.6847 17.54,5.0541 5.451,3.3693 9.762,8.0766 12.933,14.1214 3.27,5.946 4.905,12.635 4.905,20.068 0,7.432 -1.635,14.122 -4.905,20.067 -3.171,5.946 -7.482,10.654 -12.933,14.122 -5.351,3.37 -11.198,5.054 -17.54,5.054 z m -2.825,-15.013 c 3.865,0 7.433,-0.991 10.703,-2.973 3.369,-1.982 6.045,-4.807 8.027,-8.473 2.081,-3.766 3.122,-8.027 3.122,-12.784 0,-4.757 -1.041,-8.969 -3.122,-12.635 -1.982,-3.766 -4.658,-6.64 -8.027,-8.622 -3.27,-1.982 -6.838,-2.9729 -10.703,-2.9729 -3.865,0 -7.482,0.9909 -10.851,2.9729 -3.27,1.982 -5.946,4.806 -8.027,8.473 -1.982,3.667 -2.973,7.928 -2.973,12.784 0,4.856 0.991,9.117 2.973,12.784 2.081,3.666 4.757,6.491 8.027,8.473 3.369,1.982 6.986,2.973 10.851,2.973 z"
         fill="#5e5e5e"
         id="path4" /><path
         d="m 401.365,161.434 c -7.235,0 -13.775,-1.685 -19.622,-5.055 -5.748,-3.369 -10.257,-8.027 -13.527,-13.973 -3.27,-6.045 -4.905,-12.783 -4.905,-20.216 0,-7.135 1.536,-13.676 4.608,-19.622 3.171,-6.0446 7.581,-10.8014 13.229,-14.2699 5.649,-3.5675 12.091,-5.3513 19.325,-5.3513 7.432,0 13.874,1.6351 19.324,4.9054 5.55,3.2703 9.762,7.8289 12.635,13.6758 2.874,5.748 4.311,12.387 4.311,19.919 0,0.892 -0.049,1.784 -0.148,2.676 -0.1,0.891 -0.149,1.387 -0.149,1.486 h -56.784 c 0.495,6.739 2.923,11.942 7.284,15.608 4.36,3.667 9.315,5.5 14.865,5.5 8.522,0 15.063,-3.964 19.621,-11.892 l 13.973,6.69 c -3.27,6.045 -7.828,10.9 -13.675,14.567 -5.748,3.568 -12.536,5.352 -20.365,5.352 z m 18.73,-48.311 c -0.199,-2.379 -0.991,-4.807 -2.379,-7.284 -1.387,-2.478 -3.567,-4.559 -6.54,-6.2435 -2.874,-1.7838 -6.491,-2.6757 -10.852,-2.6757 -4.856,0 -9.067,1.4865 -12.635,4.4592 -3.468,2.973 -5.847,6.888 -7.135,11.744 z"
         fill="#5e5e5e"
         id="path5" /><path
         d="m 317.93,85.3252 h 15.459 v 11 h 0.892 c 1.586,-3.7657 4.46,-6.8874 8.622,-9.3649 4.162,-2.5765 8.423,-3.8648 12.784,-3.8648 3.567,0 6.491,0.4955 8.77,1.4865 v 17.095 c -3.37,-1.6851 -7.135,-2.5274 -11.297,-2.5274 -5.352,0 -9.861,2.0814 -13.528,6.2434 -3.567,4.063 -5.351,9.067 -5.351,15.013 v 38.649 H 317.93 Z"
         fill="#5e5e5e"
         id="path6" /><path
         d="m 294.594,72.8384 c -3.072,0 -5.698,-1.0405 -7.879,-3.1216 -2.081,-2.1802 -3.121,-4.8063 -3.121,-7.8784 0,-3.0721 1.04,-5.6487 3.121,-7.7297 2.181,-2.1802 4.807,-3.2703 7.879,-3.2703 3.072,0 5.648,1.0901 7.73,3.2703 2.18,2.081 3.27,4.6576 3.27,7.7297 0,3.0721 -1.09,5.6982 -3.27,7.8784 -2.082,2.0811 -4.658,3.1216 -7.73,3.1216 z m -8.176,12.4866 h 16.351 v 73.73 h -16.351 z"
         fill="#5e5e5e"
         id="path7" /><path
         d="M 211.938,52.6221 H 276.6 v 15.9054 h -48.014 v 30.6217 h 43.257 v 15.7568 h -43.257 v 44.149 h -16.648 z"
         fill="#5e5e5e"
         id="path8" /><path
         d="m 51.2275,191.109 c 8.1756,3.29 17.0452,5.243 26.3582,5.568 12.6039,0.44 24.5893,-2.166 35.3043,-7.116 -12.849,-5.048 -24.4857,-12.43 -34.4171,-21.609 -6.4377,10.308 -15.9594,18.449 -27.2454,23.157 z"
         fill="#ff9100"
         id="path9" /><path
         d="M 78.4711,167.955 C 55.8006,146.988 42.0477,116.641 43.21,83.3558 c 0.0378,-1.0809 0.0948,-2.1611 0.1615,-3.241 -4.0602,-1.0501 -8.299,-1.6909 -12.6612,-1.8432 -6.244,-0.2181 -12.2908,0.5563 -17.9995,2.1639 C 6.659,91.0365 3.00696,103.2 2.552,116.228 c -1.17415,33.624 19.1734,63.003 48.6737,74.884 11.286,-4.708 20.8074,-12.84 27.2454,-23.157 z"
         fill="#ffc400"
         id="path10" /><path
         d="m 78.472,167.954 c 5.2708,-8.435 8.4666,-18.324 8.8386,-28.978 0.9787,-28.026 -17.862,-52.1348 -43.9381,-58.8623 -0.0667,1.0799 -0.1238,2.1601 -0.1615,3.241 -1.1624,33.2853 12.5905,63.6323 35.261,84.5993 z"
         fill="#ff9100"
         id="path11" /><path
         d="M 84.3945,1.33524 C 69.5432,13.233 57.8158,28.9212 50.7205,46.9936 c -4.0622,10.3517 -6.6149,21.4711 -7.3602,33.127 26.0762,6.7275 44.9169,30.8364 43.9382,58.8624 -0.3721,10.654 -3.5772,20.533 -8.8386,28.978 9.9311,9.188 21.5681,16.561 34.4171,21.609 25.79,-11.921 44.088,-37.574 45.148,-67.916 0.686,-19.659 -6.867,-37.1796 -17.54,-51.9688 C 129.214,54.0442 84.3945,1.33524 84.3945,1.33524 Z"
         fill="#dd2c00"
         id="path12" /></g><path
       id="path17"
       style="display:inline;stroke:#000000;stroke-width:0.102435;stroke-dasharray:1.22922, 0.102435"
       inkscape:transform-center-x="-0.95610141"
       inkscape:transform-center-y="2.6737485"
       d="m 232.11076,134.01529 -5.01799,2.70837 -6.06276,-1.72345 3.19668,4.55188 3.19666,4.55188 2.3437,-5.04434 z"
       sodipodi:nodetypes="ccccccc" /><path
       id="path17-4"
       style="display:inline;stroke:#000000;stroke-width:0.102435;stroke-dasharray:1.22922, 0.102435"
       inkscape:transform-center-x="2.0481936"
       inkscape:transform-center-y="1.7670835"
       d="m 137.00201,216.17618 0.16348,-5.69988 4.52395,-4.38875 -5.54038,0.49245 -5.54038,0.49245 3.19669,4.55188 z"
       sodipodi:nodetypes="ccccccc" /></g></svg>
